<?xml version="1.0" encoding="UTF-8"?>
<svg version="1.1" viewBox="0 0 828 856" width="207" height="214" xmlns="http://www.w3.org/2000/svg">
<path transform="translate(389,84)" d="m0 0h58l5 3 51 1 1 3 30 1 6 3 18 1 6 3 12 1 16 5 7 2 9 2 9 3 7 3 9 3 16 8 15 8 9 6 7 5 4 4v2l4 2 10 11 10 19 11 23 4 11 2 13 2 3 2 13 2 3 2 13 2 3 1 6 1 16 2 1 1 6 1 25 2 1 1 4 1 39 3 2v115l-1 4-2 1-1 39-1 7-2 2-1 24-2 7-1 2-2 21-2 3-2 13-2 5-2 11-12 36-8 16-5 9-6 9-7 8-14 14-6 3-9 6-30 15-10 3-5 2-13 4-9 2-13 4-2 1-19 2-4 2-17 2-3 2-23 2h-7l-1 2-21 1-42 1-2 3h-42l-2-4h-47l-16-1-1-1-26-3-49-9-32-9-20-7-20-8-6-5-14-7-10-9-6-3-7-7-3-6-6-8-8-16-8-17-12-36-1-12-3-8-2-15-2-5-1-16-3-7-1-27-3-5-1-61h-2l-1-2v-60l1-2h2l1-62 3-4 1-27 3-6 1-18 3-6 1-14 3-6 2-12 2-5 2-11 5-14 5-11 3-9 8-15 4-5h2l5-10 4-5 12-8 8-7 11-7 10-6 8-4 9-2 2-2 7-3 2-1 13-2 3-2 9-2 3-2 13-2 4-2 16-2 4-2 15-1 6-2 5-1 17-1 6-2 1-1 49-1 9-1z"/>
<path transform="translate(275,200)" d="m0 0h10l5 5 8 11 6 14 5 19 3 18 3 30v261l-4 37-7 26-5 13-8 11-4 6-4 1h-8l-4-4-7-9-8-16-5-19-3-16-3-29-1-16v-243l3-28 2-16 6-22 6-16 7-11 5-6z" fill="#FEFEFE"/>
<path transform="translate(414,240)" d="m0 0h7l5 5 7 10 7 19 3 13 2 18 1 16v200l-2 27-4 16-6 18-5 9-7 9h-7l-5-5-7-10-7-19-4-18-2-22v-213l2-24 7-24 6-14 7-9z" fill="#FEFEFE"/>
<path transform="translate(541,332)" d="m0 0 7 1 7 4 5 6 6 12 2 8v126l-5 14-8 12-7 4h-8l-8-5-4-5-6-12-2-6-1-9v-114l2-11 6-12 7-9z" fill="#FEFEFE"/>
</svg>
